<svg xmlns="http://www.w3.org/2000/svg" width="64" height="64" fill="none" viewBox="0 0 64 64"><path fill="#554AF0" fill-rule="evenodd" d="M60.2843 32.2843L32 4L3.71573 32.2843L11.6353 40.2039L29.7373 22.1019L32 24.3647L13.8981 42.4666L21.8177 50.3862L29.7373 42.4666L32 40.2039L39.3539 47.5578L37.0912 49.8205L32 44.7293L24.0804 52.6489L32 60.5685L34.8284 57.7401L29.7373 52.6489L32 50.3862L37.0912 55.4774L45.0108 47.5578L32 34.547L21.8177 44.7293L19.5549 42.4666L29.7373 32.2843L32 30.0215L47.2735 45.295L55.1931 37.3754L32 14.1823L11.6353 34.547L9.37258 32.2843L29.7373 11.9196L29.7373 11.9196L32 9.65686L57.4558 35.1127L60.2843 32.2843ZM32 19.8392L49.5363 37.3754L47.2735 39.6382L29.7373 22.1019L32 19.8392Z" clip-rule="evenodd"/></svg>