<svg width="120" height="120" viewBox="0 0 120 120" fill="none" xmlns="http://www.w3.org/2000/svg">
  <circle cx="50%" cy="50%" r="50%" fill="white" />
  <path fill-rule="evenodd" clip-rule="evenodd"
    d="M113.033 60.533L60 7.5L6.96699 60.533L21.8162 75.3822L55.7574 41.4411L60 45.6838L26.0589 79.6249L40.9081 94.4741L55.7574 79.6249L60 83.8675L45.1508 98.7168L60 113.566L65.3033 108.263L55.7574 98.7168L60 94.4741L69.5459 104.02L84.3952 89.1708L60 64.7756L40.9081 83.8675L36.6655 79.6249L55.7574 60.533L60 56.2904L88.6378 84.9282L103.487 70.0789L60 26.5919L21.8162 64.7756L17.5736 60.533L55.7574 22.3492L55.7574 22.3492L60 18.1066L107.73 65.8363L113.033 60.533ZM60 37.1985L92.8805 70.0789L88.6378 74.3216L55.7574 41.4411L60 37.1985ZM60 75.3822L73.7886 89.1708L69.546 93.4135L55.7574 79.6249L60 75.3822Z"
    fill="#554AF0" />
</svg>